<svg xmlns="http://www.w3.org/2000/svg" viewBox="0 0 24 24" fill="currentColor" role="img" aria-label="Logo">
  <path d="M18.023 20.601 A10.5 10.5 0 1 1 18.023 3.399 L15.523 6.968 A6.143 6.143 0 1 0 15.523 17.032 Z M19.161 4.321 A10.5 10.5 0 0 1 21.803 8.237 L17.735 9.799 A6.143 6.143 0 0 0 16.189 7.508 Z M22.231 9.638 A10.5 10.5 0 0 1 22.231 14.362 L17.985 13.382 A6.143 6.143 0 0 0 17.985 10.618 Z M21.803 15.763 A10.5 10.5 0 0 1 19.161 19.679 L16.189 16.492 A6.143 6.143 0 0 0 17.735 14.201 Z"/>
</svg>
